<svg id="레이어_1" data-name="레이어 1" xmlns="http://www.w3.org/2000/svg" viewBox="0 0 85.04 85.04"><defs><style>.cls-1{fill:#fff;stroke:#070716;stroke-miterlimit:10;}.cls-2{fill:#dc4336;}.cls-3{fill:#4b7abe;}.cls-4{fill:#efb51f;}.cls-5{fill:#40a054;}</style></defs><circle class="cls-1" cx="41.99" cy="40.34" r="34.74"/><path class="cls-2" d="M53.55,22.85a24.12,24.12,0,0,0,6.59-1.36c.77-.24,2.55-1.39,2.92-1.07.53.45.09,1.6,0,2.38a13.36,13.36,0,0,1-7.22,10.76c-1.66.65-1.42.84-2.63.9-3.62.17-2.82.21-6.41.45-10.23.7-25.37,0-35.73,0a14.72,14.72,0,0,1-3-.62,23.86,23.86,0,0,1,1.6-5.87c.27-.61.82-1.89,3-5.9"/><path class="cls-3" d="M54.1,39.59c-3.33,4.16-8.91,5-22.9,5.54-6.39.24-14.23.4-23.23.28a34.09,34.09,0,0,1,.14-11.16,20.68,20.68,0,0,0,3.67.32c10.37,0,20.5.39,30.86.21a36.84,36.84,0,0,0,6.93-.68c1.19-.24,2.36-.61,3.52-.94,2.65-.76,3.2-1,3.53-.75C57.5,33.14,56.11,37.09,54.1,39.59Z"/><path class="cls-4" d="M29.1,56c-1.66.18-11.81.05-17.72,0A27.31,27.31,0,0,1,8,45.41c7.74-.08,15-.36,22.74-.34a56.39,56.39,0,0,0,7.67-.55,62,62,0,0,0,12.19-2.9A15.11,15.11,0,0,1,49.08,46a16.7,16.7,0,0,1-4.46,5.22c-1.54,1.3-3.46,2.29-7.24,4"/><path class="cls-5" d="M11.38,56c5.91,0,11.61.26,17.73-.14,2.3-.15,8.56-1.76,11.24-2.5-.16.89-1,4.16-5.49,9.45-2.86,3.4-7.88,5.48-8.71,6-.47.21-1.51.52-2,.73C19.08,66.37,14.19,62,11.38,56Z"/></svg>