<svg id="레이어_1" data-name="레이어 1" xmlns="http://www.w3.org/2000/svg" viewBox="0 0 105.57 105.57"><defs><style>.cls-1{fill:#fff;stroke:#050416;stroke-miterlimit:10;}.cls-2{fill:#e84336;}.cls-3{fill:#4885ed;}.cls-4{fill:#f9ba0b;}.cls-5{fill:#3da754;}</style></defs><circle class="cls-1" cx="52.78" cy="52.78" r="52.28"/><path class="cls-2" d="M976.6,510.4c3.31,0,6.61-1,9.92-2,1.16-.35,3.84-2.09,4.39-1.61.79.68.14,2.41,0,3.59a20.13,20.13,0,0,1-10.86,16.19c-2.5,1-2.14,1.26-4,1.35-5.45.26-4.24.31-9.66.68-15.38,1.05-38.16,0-53.77-.07-1.72,0-2.72-.59-4.44-.93,1.28-6,.57-3.76,2.41-8.83a56.82,56.82,0,0,1,4.11-8.55" transform="translate(-906.41 -483.93)"/><path class="cls-3" d="M977.43,535.59c-5,6.27-13.42,7.55-34.47,8.34-9.61.36-21.41.6-35,.42a51.51,51.51,0,0,1,.22-16.8,30.29,30.29,0,0,0,5.52.49c15.6,0,30.85.58,46.44.32a56.14,56.14,0,0,0,10.43-1c1.8-.37,3.55-.91,5.3-1.42,4-1.14,4.81-1.54,5.31-1.13C982.55,525.89,980.45,531.83,977.43,535.59Z" transform="translate(-906.41 -483.93)"/><path class="cls-4" d="M939.81,560.31c-2.51.26-17.78.07-26.68,0-2.54-5.24-3.85-7.31-5.13-16,11.65-.11,22.58-.55,34.23-.52a84.2,84.2,0,0,0,11.54-.82,92.74,92.74,0,0,0,18.34-4.37,22.9,22.9,0,0,1-2.24,6.62,25,25,0,0,1-6.71,7.87c-2.32,2-5.21,3.44-10.9,6.09" transform="translate(-906.41 -483.93)"/><path class="cls-5" d="M913.14,560.34c8.89,0,17.47.39,26.68-.21,3.46-.23,12.88-2.66,16.91-3.77-.23,1.34-1.53,6.26-8.25,14.22-4.31,5.12-11.87,8.25-13.11,9-.71.32-2.78.8-3.49,1.11C924.22,575.89,917.36,569.36,913.14,560.34Z" transform="translate(-906.41 -483.93)"/></svg>