<svg id="레이어_1" data-name="레이어 1" xmlns="http://www.w3.org/2000/svg" viewBox="0 0 85.04 85.04"><defs><style>.cls-1{fill:#fff;stroke:#070716;stroke-miterlimit:10;}.cls-2{fill:#dc4336;}.cls-3{fill:#4b7abe;}.cls-4{fill:#efb51f;}.cls-5{fill:#40a054;}</style></defs><circle class="cls-1" cx="41.99" cy="40.34" r="27.49"/><path class="cls-2" d="M51.14,26.5a19,19,0,0,0,5.21-1.08c.61-.18,2-1.09,2.31-.84s.07,1.26,0,1.89A10.58,10.58,0,0,1,53,35c-1.31.51-1.12.66-2.08.71-2.87.13-2.23.16-5.08.35-8.09.56-20.07,0-28.27,0a8.61,8.61,0,0,1-2.07-.44,24,24,0,0,1,1.44-5.16A33.92,33.92,0,0,1,19,26.18"/><path class="cls-3" d="M51.57,39.74c-2.64,3.3-7,4-18.12,4.39-5.05.19-11,.35-18.12.25a27.11,27.11,0,0,1,.12-8.81,13.06,13.06,0,0,0,2.64.21c8.2,0,16.21.3,24.42.16A29.26,29.26,0,0,0,48,35.4c.94-.19,1.86-.48,2.78-.74,2.1-.6,2.53-.82,2.79-.6C54.26,34.65,53.16,37.77,51.57,39.74Z"/><path class="cls-4" d="M31.79,52.74c-1.31.14-9,.26-13.66.25a22.7,22.7,0,0,1-2.8-8.61c6.12-.06,11.61-.32,17.74-.3a45.69,45.69,0,0,0,6.07-.43,49,49,0,0,0,9.64-2.3,12.24,12.24,0,0,1-1.18,3.48A13.23,13.23,0,0,1,44.07,49a26.08,26.08,0,0,1-5.73,3.2"/><path class="cls-5" d="M18.13,53c4.68,0,8.83,0,13.67-.34a70.37,70.37,0,0,0,8.89-2c-.12.71-.81,3.3-4.34,7.48-2.26,2.69-6.24,4.34-6.89,4.71-.37.17-1.11.42-1.48.59A28.68,28.68,0,0,1,18.13,53Z"/></svg>